<?xml version="1.0" encoding="UTF-8" standalone="no"?>
<!DOCTYPE svg PUBLIC "-//W3C//DTD SVG 1.1//EN"
 "http://www.w3.org/Graphics/SVG/1.1/DTD/svg11.dtd">
<!-- Generated by graphviz version 2.38.0 (20140413.2041)
 -->
<!-- Title: models_diagram Pages: 1 -->
<svg width="918pt" height="303pt"
 viewBox="0.00 0.00 918.34 303.00" xmlns="http://www.w3.org/2000/svg" xmlns:xlink="http://www.w3.org/1999/xlink">
<g id="graph0" class="graph" transform="scale(1 1) rotate(0) translate(4 299)">
<title>models_diagram</title>
<polygon fill="none" stroke="none" points="-4,4 -4,-299 914.343,-299 914.343,4 -4,4"/>
<!-- _diagram_info -->
<g id="node1" class="node"><title>_diagram_info</title>
<text text-anchor="start" x="8" y="-266.1" font-family="Times,serif" font-size="13.00">Models diagram</text>
<text text-anchor="start" x="8" y="-252.1" font-family="Times,serif" font-size="13.00">Date: Oct 28 2016 &#45; 20:05</text>
<text text-anchor="start" x="8" y="-238.1" font-family="Times,serif" font-size="13.00">Migration version: 20161028225043</text>
<text text-anchor="start" x="8" y="-224.1" font-family="Times,serif" font-size="13.00">Generated by RailRoady 1.5.2</text>
<text text-anchor="start" x="8" y="-210.1" font-family="Times,serif" font-size="13.00">http://railroady.prestonlee.com</text>
</g>
<!-- User -->
<g id="node2" class="node"><title>User</title>
<path fill="none" stroke="black" d="M244,-188.5C244,-188.5 464,-188.5 464,-188.5 470,-188.5 476,-194.5 476,-200.5 476,-200.5 476,-282.5 476,-282.5 476,-288.5 470,-294.5 464,-294.5 464,-294.5 244,-294.5 244,-294.5 238,-294.5 232,-288.5 232,-282.5 232,-282.5 232,-200.5 232,-200.5 232,-194.5 238,-188.5 244,-188.5"/>
<text text-anchor="middle" x="354" y="-279.3" font-family="Times,serif" font-size="14.00">User</text>
<polyline fill="none" stroke="black" points="232,-271.5 476,-271.5 "/>
<text text-anchor="start" x="240" y="-256.3" font-family="Times,serif" font-size="14.00">id :integer</text>
<text text-anchor="start" x="240" y="-241.3" font-family="Times,serif" font-size="14.00">name :character varying</text>
<text text-anchor="start" x="240" y="-226.3" font-family="Times,serif" font-size="14.00">email :character varying</text>
<text text-anchor="start" x="240" y="-211.3" font-family="Times,serif" font-size="14.00">created_at :timestamp without time zone</text>
<text text-anchor="start" x="240" y="-196.3" font-family="Times,serif" font-size="14.00">updated_at :timestamp without time zone</text>
</g>
<!-- Item -->
<g id="node4" class="node"><title>Item</title>
<path fill="none" stroke="black" d="M375,-0.5C375,-0.5 595,-0.5 595,-0.5 601,-0.5 607,-6.5 607,-12.5 607,-12.5 607,-139.5 607,-139.5 607,-145.5 601,-151.5 595,-151.5 595,-151.5 375,-151.5 375,-151.5 369,-151.5 363,-145.5 363,-139.5 363,-139.5 363,-12.5 363,-12.5 363,-6.5 369,-0.5 375,-0.5"/>
<text text-anchor="middle" x="485" y="-136.3" font-family="Times,serif" font-size="14.00">Item</text>
<polyline fill="none" stroke="black" points="363,-128.5 607,-128.5 "/>
<text text-anchor="start" x="371" y="-113.3" font-family="Times,serif" font-size="14.00">id :integer</text>
<text text-anchor="start" x="371" y="-98.3" font-family="Times,serif" font-size="14.00">serial :integer</text>
<text text-anchor="start" x="371" y="-83.3" font-family="Times,serif" font-size="14.00">size :integer</text>
<text text-anchor="start" x="371" y="-68.3" font-family="Times,serif" font-size="14.00">description :text</text>
<text text-anchor="start" x="371" y="-53.3" font-family="Times,serif" font-size="14.00">category_id :integer</text>
<text text-anchor="start" x="371" y="-38.3" font-family="Times,serif" font-size="14.00">created_at :timestamp without time zone</text>
<text text-anchor="start" x="371" y="-23.3" font-family="Times,serif" font-size="14.00">updated_at :timestamp without time zone</text>
<text text-anchor="start" x="371" y="-8.3" font-family="Times,serif" font-size="14.00">user_id :integer</text>
</g>
<!-- User&#45;&gt;Item -->
<g id="edge1" class="edge"><title>User&#45;&gt;Item</title>
<path fill="none" stroke="#7a05ac" d="M400.922,-181.937C406.704,-174.721 412.697,-167.241 418.698,-159.751"/>
<ellipse fill="none" stroke="#7a05ac" cx="398.311" cy="-185.196" rx="4.00002" ry="4.00002"/>
<polygon fill="#7a05ac" stroke="#7a05ac" points="418.952,-159.434 428.717,-154.444 422.078,-155.532 425.205,-151.63 425.205,-151.63 425.205,-151.63 422.078,-155.532 421.693,-148.816 418.952,-159.434 418.952,-159.434"/>
</g>
<!-- ApplicationRecord -->
<g id="node3" class="node"><title>ApplicationRecord</title>
<ellipse fill="none" stroke="black" cx="833" cy="-241.5" rx="77.1866" ry="18"/>
<text text-anchor="middle" x="833" y="-237.8" font-family="Times,serif" font-size="14.00">ApplicationRecord</text>
</g>
<!-- Category -->
<g id="node5" class="node"><title>Category</title>
<path fill="none" stroke="black" d="M506,-196C506,-196 726,-196 726,-196 732,-196 738,-202 738,-208 738,-208 738,-275 738,-275 738,-281 732,-287 726,-287 726,-287 506,-287 506,-287 500,-287 494,-281 494,-275 494,-275 494,-208 494,-208 494,-202 500,-196 506,-196"/>
<text text-anchor="middle" x="616" y="-271.8" font-family="Times,serif" font-size="14.00">Category</text>
<polyline fill="none" stroke="black" points="494,-264 738,-264 "/>
<text text-anchor="start" x="502" y="-248.8" font-family="Times,serif" font-size="14.00">id :integer</text>
<text text-anchor="start" x="502" y="-233.8" font-family="Times,serif" font-size="14.00">name :character varying</text>
<text text-anchor="start" x="502" y="-218.8" font-family="Times,serif" font-size="14.00">created_at :timestamp without time zone</text>
<text text-anchor="start" x="502" y="-203.8" font-family="Times,serif" font-size="14.00">updated_at :timestamp without time zone</text>
</g>
<!-- Category&#45;&gt;Item -->
<g id="edge2" class="edge"><title>Category&#45;&gt;Item</title>
<path fill="none" stroke="#834432" d="M574.994,-189.321C567.468,-179.928 559.438,-169.906 551.39,-159.861"/>
<ellipse fill="none" stroke="#834432" cx="577.703" cy="-192.701" rx="4.00002" ry="4.00002"/>
<polygon fill="#834432" stroke="#834432" points="551.194,-159.616 548.453,-148.998 548.067,-155.714 544.941,-151.812 544.941,-151.812 544.941,-151.812 548.067,-155.714 541.429,-154.626 551.194,-159.616 551.194,-159.616"/>
</g>
</g>
</svg>
